<?xml version="1.0" standalone="yes"?>
<svg xmlns="http://www.w3.org/2000/svg" width="800" height="800">
<path style="fill:#ffffff; stroke:none;" d="M0 0L0 800L800 800L800 0L0 0z"/>
<path style="fill:#383838; stroke:none;" d="M366 43.4244C348.967 45.6608 331.908 46.6358 315 50.2107C262.817 61.2435 213.449 82.3771 170 113.427C133.855 139.258 103.403 171.989 79.0031 209C20.2451 298.126 8.07297 415.747 47.4498 515C70.3817 572.802 108.932 624.33 158 662.576C217.564 709.003 290.09 735.522 365 742.651C371.386 743.259 378.493 741.926 385 742.004C406.106 742.255 426.952 741.401 448 738.714C499.099 732.192 550.511 713.089 594 685.681C633.99 660.48 668.883 628.357 696.576 590C717.581 560.905 734.311 528.313 744.974 494C753.118 467.795 759.311 439.519 759.985 412C761.04 368.938 756.86 327.099 743.329 286C706.259 173.397 609.076 88.0073 496 56.5756C463.305 47.4873 429.885 43 396 43C386.129 43 375.796 42.1382 366 43.4244z"/>
<path style="fill:#ffffff; stroke:none;" d="M369 65L369 720L385 720L385 65L369 65M428 66C436.107 78.2561 448.001 88.137 457.83 99C480.457 124.006 504.206 147.996 526.83 173C535.708 182.812 544.892 192.318 553.911 202C557.764 206.136 561.474 212.359 567 214.397C570.577 215.715 575.249 215 579 215L602 215L681 215C678.704 209.031 674.193 204.082 670.373 199C660.594 185.987 649.487 174.487 638 163C597.904 122.904 546.432 93.9641 492 78.4275C470.867 72.3954 449.493 69.9927 428 66M335 716C328.771 707.158 319.865 700.237 312 692.911C300.652 682.34 289.966 670.966 279 660C237.826 618.826 196.157 578.157 155 537L108 490C104.001 486.001 99.9644 482.037 96.0046 478C94.0905 476.049 91.39 473.828 90.8279 471C90.3168 468.428 92.0623 466.064 93.3233 464C96.2173 459.264 99.3034 454.665 102.308 450C112.997 433.404 123.476 416.668 134.053 400C136.976 395.395 144.887 387.335 144.299 381.576C143.585 374.59 135.723 366.038 132.281 360C121.916 341.819 110.925 323.971 100.201 306C96.634 300.024 93.123 294.005 89.6042 288C88.1197 285.467 85.7744 282.223 87.1327 279.171C89.809 273.157 99.9978 267.577 105 263.414L150 225.92C192.286 190.638 234.692 155.503 277 120.247L316 87.7531C323.012 81.91 331.575 76.3704 337 69C296.291 72.2177 254.411 89.2471 219 108.694C183.701 128.08 150.805 154.036 124.92 185C100.418 214.309 80.239 247.036 67.0532 283C26.8223 392.728 51.4581 516.377 128.286 604C154.272 633.637 185.644 657.694 220 676.86C255.02 696.397 295.076 710.928 335 716M406 71L406 215L538 215C531.416 205.047 522.151 196.825 514.17 188C496.287 168.228 478.053 148.772 460.17 129C449.25 116.927 438.089 105.073 427.17 93C420.512 85.6383 414.127 76.7407 406 71M345 103C328.062 128.597 312.387 155.079 295.947 181C268.931 223.594 241.772 266.133 215.192 309C204.189 326.745 192.822 344.263 181.808 362C179.11 366.344 176.435 370.707 173.657 375C172.132 377.356 169.839 380.027 169.918 383C169.995 385.872 172.187 388.635 173.6 391C176.772 396.308 179.858 401.668 182.989 407C193.934 425.635 205.016 444.226 215.719 463C243.625 511.951 272.475 560.413 301.011 609C310.985 625.983 321.045 642.919 330.85 660C335.579 668.237 341.24 676.273 345 685C346.875 680.531 346 674.809 346 670L346 641L346 540L346 231L346 142L346 116C346 111.74 346.661 106.959 345 103M316 113C301.537 126.322 285.962 138.514 271 151.272C236.087 181.041 200.912 210.502 166 240.272C153.35 251.058 140.699 261.846 128 272.576C124.21 275.778 114.879 281.006 113.878 286.17C113.42 288.531 115.204 291.05 116.285 293C118.899 297.716 121.717 302.335 124.424 307C135.245 325.644 146.954 343.926 157 363C163.193 356.528 167.672 347.59 172.424 340C179.551 328.617 186.86 317.342 194.053 306C219.669 265.614 244.929 224.874 271.333 185C282.033 168.84 292.061 152.231 302.656 136C306.792 129.664 315.115 120.521 316 113M406 237L405 383L692 383C682.293 368.803 668.685 356.749 657.17 344C636.3 320.894 615.616 297.421 594.011 275C585.848 266.529 578.103 257.617 570.089 249C566.51 245.151 563.141 239.5 558 237.603C553.632 235.992 547.595 237 543 237L512 237L406 237M587 237C596.989 251.181 611.09 263.31 622.911 276C645.585 300.341 667.97 324.954 690.961 349C698.468 356.852 705.533 365.147 713.039 373C715.932 376.026 719.34 380.747 723.286 382.397C726.905 383.909 732.14 383 736 383C736 344.547 726.564 306.508 712.201 271C708.769 262.517 704.917 253.97 700.424 246C698.917 243.325 697.576 238.999 694.61 237.603C691.904 236.331 687.907 237 685 237L663 237L587 237M156 403C141.691 424.625 129.732 448.382 114 469C123.888 483.037 138.859 494.859 151 507L224 580C245.516 601.516 266.491 623.491 288 645C297.918 654.918 307.528 666.919 319 675C307.018 652.488 292.927 630.989 280.011 609C253.127 563.232 226.109 517.516 198.8 472C185.101 449.167 170.509 426.503 158 403L156 403M405 405L404 548L601 548L662 548C672.669 548 684.585 546.52 695 549C711.228 521.223 722.651 490.396 729.576 459C731.513 450.215 737.096 434.125 731.968 426C729.117 421.484 724.796 417.978 721.286 414C718.588 410.943 715.982 407.074 712 405.603C706.079 403.417 697.26 405 691 405L644 405L405 405M404 572L404 720C487.118 720 571.419 684.229 632 628.089C644.164 616.816 655.412 604.967 665.8 592C670.866 585.677 676.506 579.354 680 572L404 572z"/>
</svg>
